<?xml version="1.0" encoding="utf-8"?>
<!-- Generator: Adobe Illustrator 19.2.1, SVG Export Plug-In . SVG Version: 6.00 Build 0)  -->
<svg version="1.1" id="layer" xmlns="http://www.w3.org/2000/svg" xmlns:xlink="http://www.w3.org/1999/xlink" x="0px" y="0px"
	 viewBox="0 0 652 652" style="enable-background:new 0 0 652 652;" xml:space="preserve">
<style type="text/css">
	.st0{fill:#FFD85F;}
	.st1{fill:#3BB4E7;}
	.st2{fill:#ED5C68;}
	.st3{fill:#308BC5;}
	.st4{fill:#D5465F;}
	.st5{fill:#2A3039;}
</style>
<path class="st0" d="M58.5,345.1C52,339,48.1,330.6,48.1,321s3.8-18,10-24.1c5.4-5.4,5.4-13.8,0-19.2s-13.8-5.4-19.2,0
	c-10.7,11.1-17.6,26.4-17.6,43.3s6.9,32.2,18,43.3c5.4,5.4,13.8,5.4,19.2,0C63.4,358.9,63.4,350.5,58.5,345.1z"/>
<path class="st1" d="M58.5,296.9c6.1-6.5,14.6-10.3,24.1-10.3s18,3.8,24.1,10c5.4,5.4,13.8,5.4,19.2,0c5.4-5.4,5.4-13.8,0-19.2
	c-11.1-10.7-26.4-17.6-43.3-17.6s-32.2,6.9-43.3,18c-5.4,5.4-5.4,13.8,0,19.2C44.7,301.8,53.1,301.8,58.5,296.9z"/>
<path class="st2" d="M106.7,345.1c-6.1,6.5-14.6,10.3-24.1,10.3s-18-3.8-24.1-10c-5.4-5.4-13.8-5.4-19.2,0s-5.4,13.8,0,19.2
	c11.1,10.7,26.4,17.6,43.3,17.6s32.2-6.9,43.3-18c5.4-5.4,5.4-13.8,0-19.2C120.5,340.2,112.1,340.2,106.7,345.1z"/>
<circle class="st3" cx="48.9" cy="287.3" r="13.4"/>
<circle class="st4" cx="48.9" cy="354.7" r="13.4"/>
<path class="st5" d="M186.1,333.6c3.8-3.1,4.6-1.1,7.7,1.9c1.5,1.5,6.1,4.6,3.1,6.9c-6.1,5-11.5,7.3-19.5,7.3
	c-17.6,0-30.3-13.4-29.5-30.7c0.4-8,3.4-15.3,9.6-20.3c5.7-4.6,12.6-6.9,19.9-6.5c3.8,0,6.9,0.8,10.3,1.9c2.3,0.8,4.6,1.9,6.5,3.4
	c3.8,3.1,1.9,4.6-0.8,7.7c-0.8,0.8-1.1,1.5-1.9,1.9c-1.5,1.5-2.7,2.7-4.6,1.1c-3.8-2.7-9.2-4.2-13.8-3.1c-15.3,3.8-14.6,31,4.2,31
	C180.3,336.7,183.8,335.6,186.1,333.6z M611.7,348.6c-2.7,0-4.6-1.9-4.6-4.6v-60.2c0-2.7,1.9-4.6,4.6-4.6h5c2.7,0,4.6,1.9,4.6,4.6
	V344c0,2.7-1.9,4.6-4.6,4.6C616.7,348.6,611.7,348.6,611.7,348.6z M585.3,341.7c-5.4,5-10.7,7.7-18.4,7.7c-15.7,0-23-13-23-27.2
	v-24.5c0-2.7,1.9-4.6,4.6-4.6h5c2.7,0,4.6,1.9,4.6,4.6v24.5c0,8,4.2,14.2,13,14.2c8.4,0,13.8-7.3,13.8-14.9v-23.8
	c0-2.7,1.9-4.6,4.6-4.6h5c2.7,0,4.6,1.9,4.6,4.6V344c0,2.7-1.9,4.6-4.6,4.6h-4.2c-2.7,0-4.2-2.3-4.6-4.6L585.3,341.7L585.3,341.7z
	 M525.5,293.4h9.6c2.7,0,4.6,2.3,4.6,4.6v3.1c0,2.7-1.9,4.6-4.6,4.6h-9.6V344c0,2.7-1.9,4.6-4.6,4.6h-5c-2.7,0-4.6-1.9-4.6-4.6
	v-52.5c0-11.5,6.5-20.7,18.4-21.8h7.3c2.7,0,4.6,2.3,4.6,4.6v3.1c0,2.7-1.9,4.6-4.6,4.6h-3.8c-5.7,0-8,4.2-8,9.6v1.9H525.5z
	 M490.6,293.4h10.7c2.7,0,4.6,1.9,4.6,4.6v3.1c0,2.7-1.9,4.6-4.6,4.6h-10.7V329c0,4.6,2.3,6.9,6.9,6.9h2.3c2.7,0,4.6,1.9,4.6,4.6
	v3.4c0,2.7-1.9,4.6-4.6,4.6h-6.5c-11.5-0.8-16.5-8-16.5-19.5v-45.2c0-2.7,1.9-4.6,4.6-4.6h5c2.7,0,4.6,1.9,4.6,4.6v9.6H490.6z
	 M337,293.4h10.7c2.7,0,4.6,1.9,4.6,4.6v3.1c0,2.7-1.9,4.6-4.6,4.6H337V329c0,4.6,2.3,7.3,6.9,7.3h2.3c2.7,0,4.6,1.9,4.6,4.6v3.1
	c0,2.7-1.9,4.6-4.6,4.6h-3.1c-12.6,0-19.9-5.4-19.9-19.5v-45.2c0-2.7,1.9-4.6,4.6-4.6h5c2.7,0,4.6,1.9,4.6,4.6v9.6
	C337.4,293.4,337,293.4,337,293.4z M274.6,299.9c5-5,10.7-7.7,17.6-7.7c15.7,0,23.8,12.6,23.8,27.2V344c0,2.7-1.9,4.6-4.6,4.6h-5
	c-2.7,0-4.6-1.9-4.6-4.6v-24.5c0-8-4.2-14.2-13-14.2c-8.4,0-13.8,6.9-13.8,14.9V344c0,2.7-1.9,4.6-4.6,4.6h-5
	c-2.7,0-4.6-1.9-4.6-4.6v-46.4c0-2.7,1.9-4.6,4.6-4.6h4.2c2.7,0,4.2,2.3,4.6,4.6L274.6,299.9z M428.6,299.9c5-5,10.7-7.7,17.6-7.7
	c15.7,0,23.8,12.6,23.8,27.2V344c0,2.7-1.9,4.6-4.6,4.6h-5c-2.7,0-4.6-1.9-4.6-4.6v-24.5c0-8-4.2-14.2-13-14.2
	c-8.4,0-13.8,6.9-13.8,14.9V344c0,2.7-1.9,4.6-4.6,4.6h-5c-2.7,0-4.6-1.9-4.6-4.6v-46.4c0-2.7,1.9-4.6,4.6-4.6h4.2
	c2.7,0,4.2,2.3,4.6,4.6C428.2,297.6,428.6,299.9,428.6,299.9z M227.4,291.9c-16.9,0-28.7,12.3-28.7,29.1s11.9,29.1,28.7,29.1
	c17.2,0,29.1-11.9,29.1-29.1C256.5,304.1,244.3,291.9,227.4,291.9z M367.7,326c1.1,7.7,8.8,11.1,16.1,11.1c3.4,0,7.3-0.8,10.3-2.3
	c0.4-0.4,1.1-0.4,1.5-0.8c1.9-1.1,3.4-1.5,5,0l2.7,2.7l2.3,2.3c2.3,3.1,0.8,3.8-1.9,5.4c-5.7,3.8-13,5.7-19.9,5.7
	c-18.4,0-30.7-11.1-30.7-29.5c0-17.6,12.3-29.1,29.5-29.1c18,0,28,10.3,28.4,28.4c0,5,0.4,6.5-4.6,6.5h-38.7
	C367.7,326.4,367.7,326,367.7,326z M227.4,304.9c8.8,0,14.6,7.7,14.6,16.1c0,8.8-5.4,15.7-14.6,15.7c-9.2,0-14.6-6.9-14.6-15.7
	S218.6,304.9,227.4,304.9z M368,314.1h28.7c-1.1-7.3-6.9-10-13.8-10C375.7,304.1,370,307.6,368,314.1z"/>
</svg>
